<mxfile host="app.diagrams.net" modified="2024-01-21T15:14:06.733Z" agent="Mozilla/5.0 (Windows NT 10.0; Win64; x64) AppleWebKit/537.36 (KHTML, like Gecko) Chrome/118.0.0.0 YaBrowser/23.11.0.0 Safari/537.36" etag="48SL7fcp8S-AD0dQqM0g" version="22.1.21" type="github">
  <diagram id="C5RBs43oDa-KdzZeNtuy" name="Page-1">
    <mxGraphModel dx="978" dy="532" grid="1" gridSize="10" guides="1" tooltips="1" connect="1" arrows="1" fold="1" page="1" pageScale="1" pageWidth="827" pageHeight="1169" math="0" shadow="0">
      <root>
        <mxCell id="WIyWlLk6GJQsqaUBKTNV-0" />
        <mxCell id="WIyWlLk6GJQsqaUBKTNV-1" parent="WIyWlLk6GJQsqaUBKTNV-0" />
        <mxCell id="Lql-Gq84RL5SOPb2xMJu-0" value="&lt;span style=&quot;color: rgb(44, 45, 48); font-family: Onest, Roboto, &amp;quot;San Francisco&amp;quot;, &amp;quot;Helvetica Neue&amp;quot;, Helvetica, Arial; font-size: 15px; font-style: normal; font-variant-ligatures: normal; font-variant-caps: normal; font-weight: 400; letter-spacing: normal; orphans: 2; text-align: start; text-indent: 0px; text-transform: none; widows: 2; word-spacing: 0px; -webkit-text-stroke-width: 0px; background-color: rgb(255, 255, 255); text-decoration-thickness: initial; text-decoration-style: initial; text-decoration-color: initial; float: none; display: inline !important;&quot;&gt;Нарисовать блок-схему алгоритма (можно обойтись блок-схемой основной содержательной части, если вы выделяете её в отдельный метод)&lt;/span&gt;" style="text;whiteSpace=wrap;html=1;" parent="WIyWlLk6GJQsqaUBKTNV-1" vertex="1">
          <mxGeometry x="40" y="20" width="560" height="50" as="geometry" />
        </mxCell>
        <mxCell id="Lql-Gq84RL5SOPb2xMJu-1" value="&lt;em style=&quot;box-sizing: border-box; color: rgb(44, 45, 48); font-family: Onest, Roboto, &amp;quot;San Francisco&amp;quot;, &amp;quot;Helvetica Neue&amp;quot;, Helvetica, Arial; font-size: 15px; font-variant-ligatures: normal; font-variant-caps: normal; font-weight: 400; letter-spacing: normal; orphans: 2; text-align: start; text-indent: 0px; text-transform: none; widows: 2; word-spacing: 0px; -webkit-text-stroke-width: 0px; background-color: rgb(255, 255, 255); text-decoration-thickness: initial; text-decoration-style: initial; text-decoration-color: initial;&quot;&gt;Задача&lt;/em&gt;&lt;span style=&quot;color: rgb(44, 45, 48); font-family: Onest, Roboto, &amp;quot;San Francisco&amp;quot;, &amp;quot;Helvetica Neue&amp;quot;, Helvetica, Arial; font-size: 15px; font-style: normal; font-variant-ligatures: normal; font-variant-caps: normal; font-weight: 400; letter-spacing: normal; orphans: 2; text-align: start; text-indent: 0px; text-transform: none; widows: 2; word-spacing: 0px; -webkit-text-stroke-width: 0px; background-color: rgb(255, 255, 255); text-decoration-thickness: initial; text-decoration-style: initial; text-decoration-color: initial; float: none; display: inline !important;&quot;&gt;: Написать программу, которая из имеющегося массива строк формирует новый массив из строк, длина которых меньше, либо равна 3 символам. Первоначальный массив можно ввести с клавиатуры, либо задать на старте выполнения алгоритма.&lt;span&gt;&amp;nbsp;&lt;/span&gt;&lt;/span&gt;" style="text;whiteSpace=wrap;html=1;" parent="WIyWlLk6GJQsqaUBKTNV-1" vertex="1">
          <mxGeometry x="600" y="80" width="150" height="100" as="geometry" />
        </mxCell>
        <mxCell id="Lql-Gq84RL5SOPb2xMJu-2" value="Начало" style="ellipse;whiteSpace=wrap;html=1;" parent="WIyWlLk6GJQsqaUBKTNV-1" vertex="1">
          <mxGeometry x="200" y="90" width="100" height="50" as="geometry" />
        </mxCell>
        <mxCell id="Lql-Gq84RL5SOPb2xMJu-3" value="" style="endArrow=classic;html=1;rounded=0;exitX=0.5;exitY=1;exitDx=0;exitDy=0;entryX=0.5;entryY=0;entryDx=0;entryDy=0;" parent="WIyWlLk6GJQsqaUBKTNV-1" source="Lql-Gq84RL5SOPb2xMJu-2" target="g0v0KsVDHkYYGWW67Xcu-0" edge="1">
          <mxGeometry width="50" height="50" relative="1" as="geometry">
            <mxPoint x="220" y="210" as="sourcePoint" />
            <mxPoint x="242.5" y="220" as="targetPoint" />
          </mxGeometry>
        </mxCell>
        <mxCell id="g0v0KsVDHkYYGWW67Xcu-2" value="" style="edgeStyle=orthogonalEdgeStyle;rounded=0;orthogonalLoop=1;jettySize=auto;html=1;" edge="1" parent="WIyWlLk6GJQsqaUBKTNV-1" source="g0v0KsVDHkYYGWW67Xcu-0" target="g0v0KsVDHkYYGWW67Xcu-1">
          <mxGeometry relative="1" as="geometry" />
        </mxCell>
        <mxCell id="g0v0KsVDHkYYGWW67Xcu-0" value="lines[ i ]&lt;br&gt;lines.Length&amp;nbsp;" style="shape=parallelogram;perimeter=parallelogramPerimeter;whiteSpace=wrap;html=1;fixedSize=1;" vertex="1" parent="WIyWlLk6GJQsqaUBKTNV-1">
          <mxGeometry x="180" y="160" width="140" height="50" as="geometry" />
        </mxCell>
        <mxCell id="g0v0KsVDHkYYGWW67Xcu-4" value="" style="edgeStyle=orthogonalEdgeStyle;rounded=0;orthogonalLoop=1;jettySize=auto;html=1;" edge="1" parent="WIyWlLk6GJQsqaUBKTNV-1" source="g0v0KsVDHkYYGWW67Xcu-1" target="g0v0KsVDHkYYGWW67Xcu-3">
          <mxGeometry relative="1" as="geometry" />
        </mxCell>
        <mxCell id="g0v0KsVDHkYYGWW67Xcu-1" value="result&amp;nbsp; = string empty&lt;br&gt;i = 0" style="whiteSpace=wrap;html=1;" vertex="1" parent="WIyWlLk6GJQsqaUBKTNV-1">
          <mxGeometry x="190" y="240" width="120" height="50" as="geometry" />
        </mxCell>
        <mxCell id="g0v0KsVDHkYYGWW67Xcu-6" value="No" style="edgeStyle=orthogonalEdgeStyle;rounded=0;orthogonalLoop=1;jettySize=auto;html=1;" edge="1" parent="WIyWlLk6GJQsqaUBKTNV-1" source="g0v0KsVDHkYYGWW67Xcu-3" target="g0v0KsVDHkYYGWW67Xcu-5">
          <mxGeometry relative="1" as="geometry" />
        </mxCell>
        <mxCell id="g0v0KsVDHkYYGWW67Xcu-10" value="Yes" style="edgeStyle=orthogonalEdgeStyle;rounded=0;orthogonalLoop=1;jettySize=auto;html=1;" edge="1" parent="WIyWlLk6GJQsqaUBKTNV-1" source="g0v0KsVDHkYYGWW67Xcu-3" target="g0v0KsVDHkYYGWW67Xcu-9">
          <mxGeometry relative="1" as="geometry" />
        </mxCell>
        <mxCell id="g0v0KsVDHkYYGWW67Xcu-3" value="i &amp;lt; lines.Length" style="rhombus;whiteSpace=wrap;html=1;fillColor=#f8cecc;strokeColor=#b85450;" vertex="1" parent="WIyWlLk6GJQsqaUBKTNV-1">
          <mxGeometry x="180" y="320" width="140" height="80" as="geometry" />
        </mxCell>
        <mxCell id="g0v0KsVDHkYYGWW67Xcu-8" value="" style="edgeStyle=orthogonalEdgeStyle;rounded=0;orthogonalLoop=1;jettySize=auto;html=1;" edge="1" parent="WIyWlLk6GJQsqaUBKTNV-1" source="g0v0KsVDHkYYGWW67Xcu-5" target="g0v0KsVDHkYYGWW67Xcu-7">
          <mxGeometry relative="1" as="geometry" />
        </mxCell>
        <mxCell id="g0v0KsVDHkYYGWW67Xcu-5" value="result" style="shape=document;whiteSpace=wrap;html=1;boundedLbl=1;" vertex="1" parent="WIyWlLk6GJQsqaUBKTNV-1">
          <mxGeometry x="350" y="335" width="86" height="50" as="geometry" />
        </mxCell>
        <mxCell id="g0v0KsVDHkYYGWW67Xcu-7" value="конец" style="ellipse;whiteSpace=wrap;html=1;" vertex="1" parent="WIyWlLk6GJQsqaUBKTNV-1">
          <mxGeometry x="470" y="335" width="90" height="50" as="geometry" />
        </mxCell>
        <mxCell id="g0v0KsVDHkYYGWW67Xcu-12" value="" style="edgeStyle=orthogonalEdgeStyle;rounded=0;orthogonalLoop=1;jettySize=auto;html=1;" edge="1" parent="WIyWlLk6GJQsqaUBKTNV-1" source="g0v0KsVDHkYYGWW67Xcu-9" target="g0v0KsVDHkYYGWW67Xcu-11">
          <mxGeometry relative="1" as="geometry" />
        </mxCell>
        <mxCell id="g0v0KsVDHkYYGWW67Xcu-9" value="symbolSet = lines [ i ]&lt;br&gt;symbolSet [ ]&lt;br&gt;symbolSet.Length" style="whiteSpace=wrap;html=1;" vertex="1" parent="WIyWlLk6GJQsqaUBKTNV-1">
          <mxGeometry x="190" y="430" width="120" height="60" as="geometry" />
        </mxCell>
        <mxCell id="g0v0KsVDHkYYGWW67Xcu-14" value="No" style="edgeStyle=orthogonalEdgeStyle;rounded=0;orthogonalLoop=1;jettySize=auto;html=1;" edge="1" parent="WIyWlLk6GJQsqaUBKTNV-1" source="g0v0KsVDHkYYGWW67Xcu-11" target="g0v0KsVDHkYYGWW67Xcu-13">
          <mxGeometry relative="1" as="geometry" />
        </mxCell>
        <mxCell id="g0v0KsVDHkYYGWW67Xcu-20" value="Yes" style="edgeStyle=orthogonalEdgeStyle;rounded=0;orthogonalLoop=1;jettySize=auto;html=1;entryX=1;entryY=0.5;entryDx=0;entryDy=0;" edge="1" parent="WIyWlLk6GJQsqaUBKTNV-1" source="g0v0KsVDHkYYGWW67Xcu-11" target="g0v0KsVDHkYYGWW67Xcu-15">
          <mxGeometry relative="1" as="geometry">
            <mxPoint x="410" y="560" as="targetPoint" />
            <Array as="points">
              <mxPoint x="370" y="550" />
              <mxPoint x="370" y="695" />
            </Array>
          </mxGeometry>
        </mxCell>
        <mxCell id="g0v0KsVDHkYYGWW67Xcu-11" value="symbolSet.Length &amp;gt; 3" style="rhombus;whiteSpace=wrap;html=1;fillColor=#d5e8d4;strokeColor=#82b366;" vertex="1" parent="WIyWlLk6GJQsqaUBKTNV-1">
          <mxGeometry x="180" y="510" width="140" height="80" as="geometry" />
        </mxCell>
        <mxCell id="g0v0KsVDHkYYGWW67Xcu-16" value="" style="edgeStyle=orthogonalEdgeStyle;rounded=0;orthogonalLoop=1;jettySize=auto;html=1;" edge="1" parent="WIyWlLk6GJQsqaUBKTNV-1" source="g0v0KsVDHkYYGWW67Xcu-13" target="g0v0KsVDHkYYGWW67Xcu-15">
          <mxGeometry relative="1" as="geometry" />
        </mxCell>
        <mxCell id="g0v0KsVDHkYYGWW67Xcu-13" value="result = result + lines [ i ]&amp;nbsp;" style="whiteSpace=wrap;html=1;" vertex="1" parent="WIyWlLk6GJQsqaUBKTNV-1">
          <mxGeometry x="175" y="620" width="150" height="40" as="geometry" />
        </mxCell>
        <mxCell id="g0v0KsVDHkYYGWW67Xcu-18" value="" style="edgeStyle=orthogonalEdgeStyle;rounded=0;orthogonalLoop=1;jettySize=auto;html=1;entryX=0;entryY=0.5;entryDx=0;entryDy=0;" edge="1" parent="WIyWlLk6GJQsqaUBKTNV-1" source="g0v0KsVDHkYYGWW67Xcu-15" target="g0v0KsVDHkYYGWW67Xcu-3">
          <mxGeometry relative="1" as="geometry">
            <mxPoint x="130" y="695" as="targetPoint" />
            <Array as="points">
              <mxPoint x="130" y="695" />
              <mxPoint x="130" y="360" />
            </Array>
          </mxGeometry>
        </mxCell>
        <mxCell id="g0v0KsVDHkYYGWW67Xcu-15" value="i = i + 1" style="whiteSpace=wrap;html=1;" vertex="1" parent="WIyWlLk6GJQsqaUBKTNV-1">
          <mxGeometry x="200" y="680" width="100" height="30" as="geometry" />
        </mxCell>
        <mxCell id="g0v0KsVDHkYYGWW67Xcu-22" value="lines[ i ] = [ qWert, yui, op,&amp;nbsp;&lt;br&gt;aSdf5, -2, :-) ]&amp;nbsp;" style="text;html=1;align=center;verticalAlign=middle;resizable=0;points=[];autosize=1;strokeColor=none;fillColor=none;" vertex="1" parent="WIyWlLk6GJQsqaUBKTNV-1">
          <mxGeometry x="320" y="170" width="170" height="40" as="geometry" />
        </mxCell>
        <mxCell id="g0v0KsVDHkYYGWW67Xcu-23" value="yui, op, -2, :-)" style="text;html=1;align=center;verticalAlign=middle;resizable=0;points=[];autosize=1;strokeColor=none;fillColor=none;" vertex="1" parent="WIyWlLk6GJQsqaUBKTNV-1">
          <mxGeometry x="355" y="308" width="90" height="30" as="geometry" />
        </mxCell>
      </root>
    </mxGraphModel>
  </diagram>
</mxfile>
